<?xml version="1.0" encoding="utf-8"?>
<!-- Generator: Adobe Illustrator 24.2.0, SVG Export Plug-In . SVG Version: 6.00 Build 0)  -->
<svg version="1.1" id="Layer_1" xmlns="http://www.w3.org/2000/svg" xmlns:xlink="http://www.w3.org/1999/xlink" x="0px" y="0px"
	 viewBox="0 0 843.2 93.5" style="enable-background:new 0 0 843.2 93.5;" xml:space="preserve">
<style type="text/css">
	.st0{fill-rule:evenodd;clip-rule:evenodd;fill:#1A3251;}
	.st1{fill-rule:evenodd;clip-rule:evenodd;fill:#45ABE0;}
	.st2{fill:#1A3251;}
	.st3{fill:#45ABE0;}
</style>
<g id="Group_6184_1_" transform="translate(-241.59 -116.875)">
	<path id="Path_4876_1_" class="st0" d="M1084.8,119.7l-24.2,90.4h-28l9.7-36.2h-31.1l-9.7,36.2h-28l18.2-68.1
		c1.4-7.5,5.8-14.1,12.2-18.2c6.8-3.2,14.3-4.6,21.8-4.1L1084.8,119.7z M475.6,132.8c-0.1,3.5-0.6,7-1.6,10.3l-11.4,42.6
		c-1.4,7.8-5.5,14.9-11.7,19.8c-7,3.6-15,5.2-22.9,4.6h-59.2l24.2-90.4h59.2c5.1-0.2,10.3,0.4,15.2,1.8
		C472.5,122.8,475.9,127.5,475.6,132.8L475.6,132.8z M446,143.1h-31.3l-11.4,42.6h31.3C434.5,185.6,446,143.1,446,143.1z
		 M573.1,132.8c0.3-5.2-3.1-9.9-8.2-11.3c-4.9-1.4-10.1-2-15.2-1.8h-59.2l-24.2,90.4h59.2c7.9,0.6,15.8-1,22.9-4.6
		c6.2-5,10.3-12,11.7-19.8l11.4-42.6C572.4,139.7,572.9,136.2,573.1,132.8L573.1,132.8z M543.4,143.1L532,185.6h-31.3l11.4-42.6
		L543.4,143.1z M668.4,119.7l-6.3,23.4h-53.5l-3.1,11.8H642c11.4,0,17.1,4.1,17.1,12.3c-0.9,6.3-2.3,12.4-4.1,18.5
		c-1.4,7.3-5,14-10.4,19.2c-6.1,4.1-13.4,5.9-20.7,5.3H563l6.5-24.5h57.8l3.1-11.7h-36.5c-5.1,0.6-10.3-0.6-14.7-3.3
		c-2-2-3-4.7-2.8-7.5c1-6.8,2.5-13.5,4.5-20.1c1.4-7,5-13.4,10.3-18.2c6.1-3.9,13.3-5.7,20.5-5.1L668.4,119.7z M762.4,132.4
		c0.4-4.6-2.2-9-6.5-10.8c-4.3-1.5-8.9-2.1-13.4-1.9h-61.1l-24.3,90.4h28l9.6-35.4h36.2c5.1,0.2,10.1-0.9,14.6-3.3
		c6.1-3.6,10.5-9.6,12.1-16.6l3-11.1C761.7,140.1,762.3,136.2,762.4,132.4L762.4,132.4z M732.7,143.1l-3.3,12.4h-29.5l3.3-12.4
		H732.7z M851.6,119.7l-6.3,23.4h-48.2l-3.1,11.8h44l-5.1,19.1h-44l-3.1,11.7H834l-6.5,24.5h-76.7l24.2-90.4L851.6,119.7z
		 M943.4,132.8c0.3-5.2-3.1-9.9-8.2-11.3c-4.9-1.4-10.1-2-15.2-1.8h-59.2l-24.2,90.4h59.2c7.9,0.6,15.8-1,22.9-4.6
		c6.2-5,10.3-12,11.7-19.8l11.4-42.6C942.8,139.7,943.3,136.2,943.4,132.8L943.4,132.8z M913.8,143.1l-11.4,42.6h-31.3l11.4-42.6
		H913.8z M1050.8,142.1h-31.1l-3.6,13.8h31.1L1050.8,142.1z"/>
	<path id="Path_4877_1_" class="st1" d="M360.2,196.1c1.7-3.2,3.1-6.6,4-10.1l12.6-44c2.9-9.8,2.5-16.6-1.1-20.2
		c-3.2-3.3-10-4.9-20.6-4.9H323c-5.7-0.2-11.4,0.5-16.9,1.9c-6.3,1.8-11.6,6.1-14.8,11.9c-1.9,3.6-3.4,7.4-4.4,11.3l-12.6,44h18.9
		l-51.7,24.1h86.9c5.7,0.2,11.4-0.5,16.9-1.9C351.7,206.3,357,201.9,360.2,196.1L360.2,196.1z M335.3,186h-32.1l12.5-43.9h43
		l-13,7.5L335.3,186z"/>
	<g id="Group_6183_1_" transform="translate(363.119 117.199)">
		<path id="Path_4878_1_" class="st2" d="M570.8,93.2h28.1l21.3-73.7L578,68.9L570.8,93.2z"/>
		<path id="Path_4879_1_" class="st3" d="M582.5,49.1l40.7-47.6h-27L582.5,49.1z"/>
	</g>
</g>
</svg>
